<mxfile host="65bd71144e">
    <diagram id="m9e5_AxYk2Y15cNEP2ss" name="第 1 页">
        <mxGraphModel dx="855" dy="536" grid="1" gridSize="10" guides="1" tooltips="1" connect="1" arrows="1" fold="1" page="1" pageScale="1" pageWidth="827" pageHeight="1169" background="#ffffff" math="0" shadow="0">
            <root>
                <mxCell id="0"/>
                <mxCell id="1" parent="0"/>
                <mxCell id="25" value="" style="endArrow=classic;html=1;fontColor=#000000;strokeColor=#000000;startArrow=none;" parent="1" edge="1" source="16">
                    <mxGeometry width="50" height="50" relative="1" as="geometry">
                        <mxPoint x="480" y="139.5" as="sourcePoint"/>
                        <mxPoint x="670" y="140" as="targetPoint"/>
                    </mxGeometry>
                </mxCell>
                <mxCell id="10" value="渲染主线程" style="rounded=0;whiteSpace=wrap;html=1;fontColor=#000000;fillColor=#99CCFF;strokeColor=#9999FF;" parent="1" vertex="1">
                    <mxGeometry x="80" y="110" width="110" height="60" as="geometry"/>
                </mxCell>
                <mxCell id="20" value="其他线程" style="rounded=0;whiteSpace=wrap;html=1;fillColor=#FFCC99;fontColor=#000000;strokeColor=#FFB366;" parent="1" vertex="1">
                    <mxGeometry x="80" y="210" width="110" height="60" as="geometry"/>
                </mxCell>
                <mxCell id="30" value="" style="endArrow=classic;html=1;fontColor=#000000;strokeColor=#000000;endFill=1;startArrow=none;" parent="1" source="21" edge="1">
                    <mxGeometry width="50" height="50" relative="1" as="geometry">
                        <mxPoint x="190" y="240" as="sourcePoint"/>
                        <mxPoint x="670" y="240" as="targetPoint"/>
                    </mxGeometry>
                </mxCell>
                <mxCell id="23" value="layout" style="rounded=0;whiteSpace=wrap;html=1;fontColor=#000000;fillColor=#99CCFF;strokeColor=#9999FF;" parent="1" vertex="1">
                    <mxGeometry x="340" y="120" width="50" height="40" as="geometry"/>
                </mxCell>
                <mxCell id="58" value="" style="endArrow=none;html=1;fontColor=#000000;strokeColor=#000000;startArrow=none;" parent="1" edge="1">
                    <mxGeometry width="50" height="50" relative="1" as="geometry">
                        <mxPoint x="658" y="140" as="sourcePoint"/>
                        <mxPoint x="658" y="140" as="targetPoint"/>
                    </mxGeometry>
                </mxCell>
                <mxCell id="59" value="style" style="rounded=0;whiteSpace=wrap;html=1;fontColor=#000000;fillColor=#99CCFF;strokeColor=#9999FF;" vertex="1" parent="1">
                    <mxGeometry x="280" y="120" width="50" height="40" as="geometry"/>
                </mxCell>
                <mxCell id="60" value="layer" style="rounded=0;whiteSpace=wrap;html=1;fontColor=#000000;fillColor=#99CCFF;strokeColor=#9999FF;" vertex="1" parent="1">
                    <mxGeometry x="400" y="120" width="50" height="40" as="geometry"/>
                </mxCell>
                <mxCell id="62" value="" style="endArrow=none;html=1;fontColor=#000000;strokeColor=#000000;startArrow=none;" edge="1" parent="1" target="61">
                    <mxGeometry width="50" height="50" relative="1" as="geometry">
                        <mxPoint x="480" y="139.5" as="sourcePoint"/>
                        <mxPoint x="560" y="140" as="targetPoint"/>
                    </mxGeometry>
                </mxCell>
                <mxCell id="67" style="edgeStyle=orthogonalEdgeStyle;html=1;entryX=0;entryY=0.25;entryDx=0;entryDy=0;curved=1;strokeColor=#B3B3B3;dashed=1;" edge="1" parent="1" source="61" target="21">
                    <mxGeometry relative="1" as="geometry"/>
                </mxCell>
                <mxCell id="61" value="paint" style="rounded=0;whiteSpace=wrap;html=1;fontColor=#000000;fillColor=#99CCFF;strokeColor=#9999FF;" vertex="1" parent="1">
                    <mxGeometry x="460" y="120" width="50" height="40" as="geometry"/>
                </mxCell>
                <mxCell id="64" value="" style="endArrow=none;html=1;fontColor=#000000;strokeColor=#000000;startArrow=none;" edge="1" parent="1" source="10" target="16">
                    <mxGeometry width="50" height="50" relative="1" as="geometry">
                        <mxPoint x="190" y="140" as="sourcePoint"/>
                        <mxPoint x="560" y="140" as="targetPoint"/>
                    </mxGeometry>
                </mxCell>
                <mxCell id="16" value="parse" style="rounded=0;whiteSpace=wrap;html=1;fontColor=#000000;fillColor=#99CCFF;strokeColor=#9999FF;" parent="1" vertex="1">
                    <mxGeometry x="210" y="120" width="60" height="40" as="geometry"/>
                </mxCell>
                <mxCell id="65" value="" style="endArrow=none;html=1;fontColor=#000000;strokeColor=#000000;endFill=1;" edge="1" parent="1" source="20" target="21">
                    <mxGeometry width="50" height="50" relative="1" as="geometry">
                        <mxPoint x="190" y="240" as="sourcePoint"/>
                        <mxPoint x="560" y="240" as="targetPoint"/>
                    </mxGeometry>
                </mxCell>
                <mxCell id="21" value="后续步骤...." style="rounded=0;whiteSpace=wrap;html=1;fontColor=#000000;fillColor=#FFCC99;strokeColor=#FFB366;" parent="1" vertex="1">
                    <mxGeometry x="540" y="220" width="90" height="40" as="geometry"/>
                </mxCell>
            </root>
        </mxGraphModel>
    </diagram>
</mxfile>